<svg width="48" height="48" viewBox="0 0 48 48" fill="none" xmlns="http://www.w3.org/2000/svg">
<g clip-path="url(#clip0_1_15)">
<path d="M0 24C0 10.7452 10.7452 0 24 0C37.2548 0 48 10.7452 48 24C48 37.2548 37.2548 48 24 48C10.7452 48 0 37.2548 0 24Z" fill="#FBFEFF"/>
<path d="M19.9576 33.5172C13.538 35.4092 13.538 30.1388 11 29.4631M28.9153 36.22V31.4901C28.9153 30.1388 29.0646 29.5982 28.1688 28.7874C32.3491 28.3819 36.38 26.8954 36.38 20.679C36.3782 19.0641 35.6821 17.5132 34.4392 16.3546C35.0221 14.9518 34.9685 13.3973 34.2899 12.0302C34.2899 12.0302 32.6476 11.6247 29.0646 13.787C26.0298 13.0715 22.8431 13.0715 19.8084 13.787C16.2253 11.6247 14.5831 12.0302 14.5831 12.0302C13.9045 13.3973 13.8508 14.9518 14.4338 16.3546C13.1908 17.5132 12.4948 19.0641 12.4929 20.679C12.4929 26.8954 16.5239 28.3819 20.7041 28.7874C19.8084 29.5982 19.8084 30.409 19.9576 31.4901V36.22" stroke="#888585" stroke-width="2" stroke-linecap="round" stroke-linejoin="round"/>
</g>
<defs>
<clipPath id="clip0_1_15">
<rect width="48" height="48" fill="white"/>
</clipPath>
</defs>
</svg>
