<svg width="48" height="48" viewBox="0 0 48 48" fill="none" xmlns="http://www.w3.org/2000/svg">
<g clip-path="url(#clip0_7_2)">
<rect width="48" height="48" rx="24" fill="white"/>
<circle cx="24" cy="24" r="24" fill="white"/>
<path fill-rule="evenodd" clip-rule="evenodd" d="M24.21 12.52C20.7642 12.52 20.3317 12.534 18.9778 12.5927C17.6268 12.6513 16.7043 12.8563 15.8971 13.1553C15.0505 13.4596 14.2836 13.9364 13.65 14.5526C13.0042 15.1576 12.5045 15.8897 12.1857 16.698C11.8724 17.4674 11.6586 18.3477 11.5961 19.637C11.5346 20.929 11.52 21.3417 11.52 24.63C11.52 27.9183 11.5346 28.331 11.5961 29.623C11.6576 30.9123 11.8724 31.7926 12.1857 32.562C12.5108 33.3585 12.9442 34.0339 13.65 34.7074C14.2836 35.3236 15.0505 35.8004 15.8971 36.1047C16.7043 36.4028 17.6268 36.6077 18.9778 36.6673C20.3317 36.726 20.7642 36.74 24.21 36.74C27.6558 36.74 28.0882 36.726 29.4422 36.6673C30.7932 36.6087 31.7156 36.4037 32.5219 36.1047C33.3689 35.8006 34.1361 35.3237 34.77 34.7074C35.4158 34.1024 35.9155 33.3703 36.2343 32.562C36.5466 31.7926 36.7614 30.9123 36.8238 29.623C36.8853 28.331 36.9 27.9183 36.9 24.63C36.9 21.3417 36.8853 20.929 36.8238 19.637C36.7624 18.3477 36.5476 17.4674 36.2333 16.698C35.9148 15.8898 35.4155 15.1577 34.77 14.5526C34.1361 13.9363 33.3689 13.4594 32.5219 13.1553C31.7156 12.8572 30.7932 12.6523 29.4422 12.5927C28.0882 12.534 27.6558 12.52 24.21 12.52ZM24.21 14.7017C27.5982 14.7017 27.9994 14.7147 29.3377 14.7725C30.5745 14.8265 31.2471 15.024 31.6942 15.1898C32.2867 15.4096 32.7094 15.6714 33.1535 16.0952C33.5977 16.5191 33.872 16.9225 34.1023 17.4879C34.2761 17.9145 34.483 18.5554 34.5396 19.7366C34.6002 21.0128 34.6138 21.3966 34.6138 24.63C34.6138 27.8634 34.6002 28.2462 34.5396 29.5234C34.483 30.7046 34.2761 31.3455 34.1023 31.7721C33.8991 32.2981 33.5748 32.774 33.1535 33.1648C32.7441 33.5669 32.2454 33.8763 31.6942 34.0702C31.2471 34.236 30.5745 34.4335 29.3377 34.4875C28.0004 34.5453 27.5982 34.5583 24.21 34.5583C20.8218 34.5583 20.4196 34.5453 19.0823 34.4875C17.8445 34.4335 17.1729 34.236 16.7258 34.0702C16.1746 33.8763 15.6759 33.5669 15.2665 33.1648C14.8452 32.774 14.521 32.2981 14.3176 31.7721C14.1439 31.3455 13.9369 30.7046 13.8803 29.5234C13.8198 28.2472 13.8061 27.8634 13.8061 24.63C13.8061 21.3966 13.8198 21.0138 13.8803 19.7366C13.9369 18.5554 14.1439 17.9145 14.3176 17.4879C14.548 16.9225 14.8223 16.5191 15.2665 16.0952C15.6759 15.6932 16.1746 15.3838 16.7258 15.1898C17.1729 15.024 17.8445 14.8265 19.0823 14.7725C20.4196 14.7147 20.8218 14.7017 24.21 14.7017Z" fill="#888585"/>
<path fill-rule="evenodd" clip-rule="evenodd" d="M24.21 18.1092C22.3977 18.1092 20.6597 18.7962 19.3783 20.0191C18.0968 21.242 17.3769 22.9006 17.3769 24.63C17.3769 26.3594 18.0968 28.018 19.3783 29.2409C20.6597 30.4638 22.3977 31.1508 24.21 31.1508C26.0222 31.1508 27.7602 30.4638 29.0417 29.2409C30.3231 28.018 31.043 26.3594 31.043 24.63C31.043 22.9006 30.3231 21.242 29.0417 20.0191C27.7602 18.7962 26.0222 18.1092 24.21 18.1092ZM24.21 28.8219C23.045 28.8219 21.9277 28.3803 21.1039 27.5941C20.2801 26.808 19.8173 25.7418 19.8173 24.63C19.8173 23.5182 20.2801 22.452 21.1039 21.6659C21.9277 20.8797 23.045 20.4381 24.21 20.4381C25.375 20.4381 26.4923 20.8797 27.3161 21.6659C28.1399 22.452 28.6027 23.5182 28.6027 24.63C28.6027 25.7418 28.1399 26.808 27.3161 27.5941C26.4923 28.3803 25.375 28.8219 24.21 28.8219ZM32.7025 18.2024C32.7025 18.3981 32.6621 18.5919 32.5836 18.7728C32.5051 18.9536 32.3901 19.1179 32.2451 19.2563C32.1 19.3947 31.9278 19.5045 31.7384 19.5794C31.5489 19.6543 31.3458 19.6928 31.1407 19.6928C30.9356 19.6928 30.7325 19.6543 30.543 19.5794C30.3535 19.5045 30.1813 19.3947 30.0363 19.2563C29.8912 19.1179 29.7762 18.9536 29.6977 18.7728C29.6192 18.5919 29.5788 18.3981 29.5788 18.2024C29.5788 17.8071 29.7434 17.428 30.0363 17.1485C30.3292 16.869 30.7264 16.7119 31.1407 16.7119C31.5549 16.7119 31.9521 16.869 32.2451 17.1485C32.538 17.428 32.7025 17.8071 32.7025 18.2024Z" fill="#888585"/>
</g>
<defs>
<clipPath id="clip0_7_2">
<rect width="48" height="48" rx="24" fill="white"/>
</clipPath>
</defs>
</svg>
