<svg width="48" height="48" viewBox="0 0 48 48" fill="none" xmlns="http://www.w3.org/2000/svg">
<g clip-path="url(#clip0_1_4)">
<path d="M0 24C0 10.7452 10.7452 0 24 0C37.2548 0 48 10.7452 48 24C48 37.2548 37.2548 48 24 48C10.7452 48 0 37.2548 0 24Z" fill="#FBFEFF"/>
<path fill-rule="evenodd" clip-rule="evenodd" d="M18.1188 12.8227C18.1188 14.3918 16.9377 15.6473 15.0412 15.6473H15.0064C13.1805 15.6473 12 14.3918 12 12.8227C12 11.2204 13.2164 10 15.077 10C16.9377 10 18.0835 11.2204 18.1188 12.8227ZM17.7605 17.8778V34.2196H12.3216V17.8778H17.7605ZM37.3752 34.2196L37.3754 24.8497C37.3754 19.8303 34.6922 17.4941 31.1131 17.4941C28.2254 17.4941 26.9325 19.0802 26.2107 20.1929V17.8783H20.7711C20.8428 19.4117 20.7711 34.22 20.7711 34.22H26.2107V25.0934C26.2107 24.605 26.246 24.1178 26.3898 23.7681C26.7829 22.7924 27.6779 21.7822 29.1805 21.7822C31.1494 21.7822 31.9365 23.2807 31.9365 25.4767V34.2196H37.3752Z" fill="#888585"/>
</g>
<defs>
<clipPath id="clip0_1_4">
<rect width="48" height="48" fill="white"/>
</clipPath>
</defs>
</svg>
